<?xml version="1.0" encoding="utf-8"?>
<!-- Generator: Adobe Illustrator 24.2.1, SVG Export Plug-In . SVG Version: 6.00 Build 0)  -->
<svg version="1.1" id="Layer_1" xmlns="http://www.w3.org/2000/svg" xmlns:xlink="http://www.w3.org/1999/xlink" x="0px" y="0px"
	 viewBox="0 0 144.01 82.76" style="enable-background:new 0 0 144.01 82.76;" xml:space="preserve">
<style type="text/css">
	.st0{fill:#800000;stroke:#800000;stroke-width:0.09;stroke-miterlimit:10;}
	.st1{fill:#800000;stroke:#800000;stroke-width:0.24;stroke-miterlimit:10;}
	.st2{fill:#FFFFFF;stroke:#800000;stroke-width:0.4;stroke-miterlimit:10;}
	.st3{fill:none;stroke:#800000;stroke-width:0.55;stroke-miterlimit:10;}
	.st4{fill:#800000;stroke:#800000;stroke-width:0.4;stroke-miterlimit:10;}
	.st5{fill:none;stroke:#800000;stroke-width:0.6;stroke-miterlimit:10;}
	.st6{fill:#FFFFFF;}
	.st7{fill:#7B1315;}
</style>
<g>
	<g>
		<path class="st0" d="M34.94,22.13c2.85,0.64,4.99,3.2,4.99,6.24c0,2.02-0.96,3.81-2.4,4.99c-1.09,0.9-2.5,1.41-4.64,1.41h-7.68
			v-22.4h7.07c1.89,0,3.04,0.48,3.94,1.22c1.09,0.93,1.79,2.3,1.79,3.87C38.01,19.58,36.73,21.37,34.94,22.13z M32.22,21.97
			c1.79,0,2.85-0.42,3.65-1.15c0.93-0.83,1.5-2.02,1.5-3.36c0-1.34-0.58-2.53-1.5-3.36c-0.8-0.74-1.86-1.15-3.65-1.15h-6.37v9.02
			H32.22z M25.85,22.55V34.2h6.98c2.21,0,3.62-0.61,4.67-1.63c1.09-1.06,1.79-2.56,1.79-4.19s-0.7-3.14-1.79-4.19
			c-1.06-1.02-2.46-1.63-4.67-1.63H25.85z"/>
		<path class="st0" d="M56.89,20.69v14.08h-0.64v-2.62c-0.74,1.25-2.82,2.94-5.79,2.94c-4.19,0-7.14-3.1-7.14-7.33
			c0-4.16,3.07-7.39,7.23-7.39c2.88,0,4.74,1.5,5.7,2.85v-2.53H56.89z M56.25,24.28c-1.18-2.02-3.2-3.33-5.63-3.33
			c-3.87,0-6.66,2.98-6.66,6.82c0,3.84,2.62,6.75,6.5,6.75c2.72,0,4.9-1.6,5.79-3.49V24.28z"/>
		<path class="st0" d="M72.85,34.77l-9.86-7.36v7.36h-0.64V12.06h0.64V27l8.7-6.3h0.99l-8.96,6.5l10.08,7.58H72.85z"/>
		<path class="st0" d="M87.72,34.77l-9.86-7.36v7.36h-0.64V12.06h0.64V27l8.7-6.3h0.99l-8.96,6.5l10.08,7.58H87.72z"/>
		<path class="st0" d="M97.03,20.37c4.16,0,7.17,3.3,7.17,7.36c0,4.06-3.01,7.36-7.17,7.36c-4.16,0-7.17-3.3-7.17-7.36
			C89.86,23.67,92.87,20.37,97.03,20.37z M97.03,20.95c-3.74,0-6.53,3.04-6.53,6.78s2.78,6.78,6.53,6.78c3.74,0,6.53-3.04,6.53-6.78
			S100.77,20.95,97.03,20.95z"/>
		<path class="st0" d="M119.83,34.77v-2.78c-1.31,1.76-3.3,3.1-5.82,3.1c-1.5,0-3.04-0.61-4.16-1.79c-0.96-1.02-1.5-2.43-1.5-4.61
			v-8h0.64v8c0,2.02,0.51,3.3,1.38,4.22c0.9,0.96,2.24,1.6,3.65,1.6c2.3,0,4.35-1.28,5.82-3.49V20.69h0.64v14.08H119.83z"/>
		<path class="st0" d="M131.62,20.98c-0.19-0.03-0.22-0.03-0.38-0.03c-2.59,0-3.94,1.82-4.67,3.58v10.24h-0.64V20.69h0.64v2.56
			c0.8-1.7,2.46-2.88,4.64-2.88c0.13,0,0.22,0,0.48,0.03L131.62,20.98z"/>
	</g>
	<g>
		<path class="st1" d="M23.58,23.01c0-2.97,0-5.95,0-8.92c0-1.1-0.73-1.84-1.96-1.99c-1.76-0.21-3.62,0.64-4.51,2.07
			c-0.27,0.44-0.64,0.75-1.14,0.99c-1.25,0.6-2.12,1.49-2.35,2.77c-0.07,0.42-0.15,0.82-0.48,1.14c-0.16,0.16-0.36,0.3-0.56,0.42
			c-1.62,0.96-2.08,2.81-1.03,4.26c0.42,0.58,0.47,1.16,0.23,1.8c-0.59,1.61-0.43,3.14,0.6,4.59c0.7,0.99,1.72,1.53,3.03,1.64
			c0.75,0.06,0.89,0.19,0.97,0.84c0.11,0.89,0.57,1.56,1.47,1.98c1.07,0.5,2.2,0.71,3.41,0.5c1.3-0.23,1.95-0.97,2.15-2.08
			c0.08-0.47,0.15-0.94,0.15-1.41C23.59,28.74,23.58,25.88,23.58,23.01z M12.42,24.58c0.33,0.19,0.46,0.51,0.56,0.86
			c0.02,0.08,0.15,0.13,0.23,0.19c0.05-0.08,0.15-0.18,0.14-0.25c-0.07-0.44-0.26-0.87-0.71-1.09c-0.45-0.21-0.65-0.57-0.87-0.92
			c-0.74-1.19-0.33-2.73,0.92-3.49c0.07-0.04,0.14-0.07,0.24-0.11c0.01,0.13,0.02,0.21,0.03,0.3c0.07,0.57,0.44,0.95,0.99,1.21
			c0.07,0.03,0.19-0.02,0.29-0.03c-0.03-0.09-0.03-0.19-0.09-0.25c-0.08-0.09-0.22-0.13-0.32-0.21c-0.43-0.31-0.58-0.74-0.41-1.22
			c0.07-0.19,0.2-0.37,0.28-0.56c0.1-0.24,0.24-0.48,0.27-0.72c0.1-1.08,0.73-1.88,1.67-2.51c0.05-0.04,0.12-0.05,0.15-0.07
			c0,0.3-0.01,0.6,0,0.89c0.01,0.14,0.03,0.34,0.26,0.29c0.07-0.01,0.13-0.22,0.12-0.33c-0.05-0.51,0.06-0.95,0.48-1.33
			c0.29-0.26,0.57-0.55,0.79-0.86c0.82-1.17,1.97-1.86,3.53-1.94c1.14-0.06,2.31,0.44,2.23,1.85c-0.04,0.74-0.01,1.48-0.01,2.22
			c0,0.09-0.01,0.18-0.02,0.24c-0.35-0.14-0.68-0.28-1.02-0.39c-0.07-0.02-0.18,0.07-0.27,0.1c0.05,0.07,0.09,0.16,0.16,0.22
			c0.04,0.04,0.12,0.04,0.19,0.06c0.64,0.19,0.96,0.6,0.96,1.2c0,0.8,0,1.6,0,2.39c0,0.09-0.01,0.18-0.02,0.29
			c-0.2-0.11-0.34-0.2-0.5-0.27c-0.14-0.06-0.31-0.19-0.42,0.01c-0.1,0.18,0.09,0.23,0.23,0.29c0.48,0.22,0.73,0.55,0.73,1.06
			c-0.02,2.6-0.01,5.2-0.01,7.8c0,0.85-0.33,1.22-1.26,1.39c-0.02,0-0.05,0-0.06,0.01c-0.05,0.05-0.14,0.11-0.14,0.17
			c0,0.06,0.09,0.14,0.15,0.16c0.1,0.02,0.23,0.02,0.33-0.01c0.33-0.12,0.65-0.25,0.97-0.38c0.04,0.87,0,1.75-0.29,2.63
			c-0.22,0.66-0.7,1.06-1.42,1.25c-1.27,0.32-2.46,0.08-3.57-0.5c-0.6-0.31-0.98-0.79-1.05-1.4c-0.05-0.45,0.01-0.92,0-1.38
			c0-0.1-0.07-0.19-0.1-0.29c-0.09,0.07-0.21,0.13-0.27,0.22c-0.06,0.08-0.06,0.19-0.08,0.24c-0.35-0.06-0.68-0.12-1.01-0.16
			c-0.96-0.11-1.77-0.45-2.36-1.13c-1.17-1.34-1.43-2.84-0.91-4.47C12.23,25.43,12.31,25.01,12.42,24.58z"/>
		<path class="st1" d="M17.93,31.01c0.67-0.26,1.31-0.5,1.94-0.77c0.1-0.04,0.14-0.2,0.2-0.31c-0.14,0-0.3-0.03-0.4,0.02
			c-0.62,0.31-1.26,0.58-1.99,0.61c-0.79,0.03-1.42-0.25-1.9-0.81c-0.03-0.04-0.05-0.1-0.1-0.12c-0.09-0.05-0.2-0.07-0.3-0.11
			c-0.01,0.1-0.08,0.23-0.03,0.3c0.41,0.58,1,0.95,1.76,1.05c0.27,0.04,0.37,0.12,0.43,0.37c0.26,1.01,1.09,1.59,2.1,1.98
			c0.07,0.03,0.19-0.04,0.29-0.06c-0.05-0.09-0.07-0.2-0.14-0.25c-0.4-0.26-0.85-0.46-1.22-0.75C18.12,31.81,17.9,31.31,17.93,31.01
			z"/>
		<path class="st1" d="M17.36,17.13c0.06-0.5,0.37-0.95,0.86-1.3c0.31-0.22,0.68-0.37,1-0.57c0.09-0.05,0.12-0.17,0.18-0.26
			c-0.11-0.02-0.25-0.09-0.34-0.05c-1.06,0.42-1.88,1.04-2.11,2.11c-0.02,0.07-0.16,0.17-0.26,0.18c-0.78,0.1-1.4,0.43-1.83,1.01
			c-0.07,0.09-0.1,0.3-0.04,0.35c0.17,0.14,0.26-0.02,0.35-0.14c0.61-0.76,1.53-1.06,2.57-0.79c0.48,0.13,0.93,0.36,1.4,0.53
			c0.11,0.04,0.25,0,0.37,0c-0.06-0.1-0.09-0.25-0.18-0.29C18.71,17.66,18.07,17.41,17.36,17.13z"/>
		<path class="st1" d="M18.6,29.05c0.04-0.09,0.11-0.19,0.11-0.28c0-0.39,0.09-0.75,0.39-1.04c0.42-0.42,1-0.53,1.6-0.55
			c0.53-0.01,1.04-0.06,1.51-0.3c0.1-0.05,0.21-0.09,0.28-0.16c0.06-0.07,0.06-0.18,0.09-0.27c-0.1-0.01-0.2-0.02-0.3-0.02
			c-0.03,0-0.05,0.03-0.08,0.05c-0.41,0.24-0.87,0.31-1.35,0.35c-0.47,0.04-0.95,0.09-1.39,0.24c-0.77,0.27-1.21,0.99-1.11,1.72
			c0.01,0.09,0.09,0.17,0.14,0.25C18.51,29.05,18.55,29.05,18.6,29.05z"/>
		<path class="st1" d="M13.94,23.45c0.01,0.49,0.16,0.9,0.54,1.18c0.4,0.3,0.87,0.53,1.32,0.77c0.07,0.04,0.21-0.03,0.31-0.04
			c-0.05-0.09-0.08-0.22-0.17-0.27c-0.26-0.15-0.55-0.25-0.8-0.41c-0.85-0.53-1.02-1.25-0.52-2.06c0.1-0.16,0.25-0.3,0.34-0.47
			c0.05-0.08,0.02-0.2,0.02-0.31c-0.1,0.02-0.25,0.02-0.31,0.08C14.24,22.37,13.96,22.88,13.94,23.45z"/>
		<path class="st1" d="M19.77,25.85c0.8-0.04,1.26-0.39,1.43-0.98c0.05-0.17,0.09-0.34,0.14-0.52c0.09-0.36,0.27-0.66,0.61-0.88
			c0.08-0.05,0.08-0.19,0.11-0.29c-0.12,0-0.29-0.03-0.34,0.02c-0.24,0.24-0.49,0.48-0.65,0.76c-0.14,0.25-0.18,0.54-0.26,0.82
			c-0.14,0.46-0.43,0.68-0.97,0.7c-0.16,0.01-0.36,0-0.32,0.19C19.55,25.76,19.73,25.82,19.77,25.85z"/>
		<path class="st1" d="M17.41,22.48c-0.2-0.21-0.39-0.44-0.62-0.64c-0.11-0.09-0.29-0.14-0.45-0.18c-0.06-0.01-0.2,0.05-0.2,0.09
			c-0.01,0.07,0.03,0.2,0.09,0.22c0.77,0.26,0.86,0.86,0.96,1.47c0.01,0.08-0.01,0.17,0.03,0.23c0.03,0.05,0.13,0.1,0.2,0.1
			c0.05,0,0.13-0.07,0.15-0.12c0.02-0.09,0.01-0.2,0.01-0.29c-0.03-0.47,0.1-0.66,0.58-0.86c0.05-0.02,0.12-0.03,0.15-0.06
			c0.06-0.07,0.11-0.16,0.16-0.24c-0.1-0.03-0.23-0.1-0.31-0.07C17.9,22.23,17.65,22.37,17.41,22.48z"/>
		<path class="st1" d="M19.22,24.43c-1.02,0.14-1.78,0.51-2.19,1.31c-0.03,0.06-0.07,0.13-0.07,0.19c0.01,0.08,0.07,0.15,0.1,0.22
			c0.09-0.04,0.23-0.06,0.26-0.12c0.32-0.77,1-1.11,1.86-1.25c0.09-0.02,0.17-0.14,0.25-0.21C19.35,24.52,19.27,24.47,19.22,24.43z"
			/>
		<path class="st1" d="M16.38,19.06c0.1,0.68,0.41,1.17,0.93,1.55c0.06,0.05,0.19,0.02,0.29,0.02c-0.01-0.09,0.02-0.23-0.04-0.28
			c-0.44-0.37-0.74-0.8-0.79-1.35c-0.01-0.06-0.14-0.11-0.22-0.16C16.48,18.93,16.42,19.02,16.38,19.06z"/>
		<path class="st1" d="M20.63,13.3c-0.48,0.02-0.9,0.17-1.24,0.46c-0.07,0.06-0.05,0.2-0.07,0.3c0.11-0.01,0.25,0.02,0.32-0.03
			c0.45-0.32,0.93-0.43,1.49-0.27c0.08,0.02,0.19-0.07,0.29-0.11c-0.06-0.07-0.1-0.19-0.17-0.21C21.04,13.36,20.83,13.34,20.63,13.3
			z"/>
		<path class="st1" d="M15.57,27.53c-0.02-0.43-0.19-0.81-0.55-1.1c-0.08-0.07-0.24-0.06-0.37-0.09c0.03,0.11,0.01,0.25,0.08,0.32
			c0.38,0.34,0.46,0.74,0.4,1.2c-0.01,0.1,0.04,0.28,0.11,0.3c0.21,0.06,0.25-0.11,0.27-0.25C15.53,27.78,15.55,27.66,15.57,27.53z"
			/>
		<path class="st1" d="M22.06,19.49c0.05-0.04,0.17-0.1,0.18-0.16c0-0.07-0.1-0.18-0.17-0.2c-0.59-0.13-1.09-0.37-1.44-0.82
			c-0.04-0.05-0.19-0.04-0.29-0.05c-0.01,0.09-0.06,0.2-0.01,0.26C20.71,19.07,21.31,19.35,22.06,19.49z"/>
	</g>
	<g>
		<g>
			<path class="st2" d="M62.8,44.09v8.31h-0.26v-9.02h0.13l3.99,6.62l3.99-6.62h0.13v9.02h-0.26v-8.31l-3.8,6.25h-0.13L62.8,44.09z"
				/>
			<path class="st2" d="M72.91,49.4v0.15c0,1.52,0.95,2.74,2.59,2.74c0.8,0,1.53-0.28,2.09-0.93l0.18,0.18
				c-0.57,0.64-1.35,0.98-2.27,0.98c-1.8,0-2.85-1.35-2.85-2.98s1.06-2.95,2.68-2.95c1.58,0,2.63,1.25,2.68,2.79H72.91z
				 M72.93,49.17h4.78c-0.1-1.27-1.02-2.33-2.38-2.33C74.01,46.84,73.1,47.8,72.93,49.17z"/>
			<path class="st2" d="M80.02,46.73v1.11c0.54-0.7,1.34-1.24,2.34-1.24c0.6,0,1.22,0.24,1.67,0.72c0.19,0.21,0.33,0.45,0.44,0.75
				c0.44-0.7,1.3-1.47,2.49-1.47c0.62,0,1.24,0.23,1.7,0.72c0.39,0.41,0.61,0.98,0.61,1.85v3.22h-0.26v-3.22
				c0-0.81-0.21-1.33-0.55-1.7c-0.36-0.39-0.9-0.64-1.47-0.64c-1.13,0-1.98,0.75-2.42,1.55c0.05,0.23,0.08,0.5,0.08,0.8v3.22h-0.26
				v-3.22c0-0.81-0.21-1.33-0.55-1.7c-0.36-0.39-0.9-0.64-1.47-0.64c-0.93,0-1.74,0.53-2.34,1.4v4.16h-0.26v-5.67H80.02z"/>
			<path class="st2" d="M93.91,46.61c1.67,0,2.88,1.33,2.88,2.96c0,1.64-1.21,2.96-2.88,2.96c-1.67,0-2.88-1.33-2.88-2.96
				C91.02,47.93,92.23,46.61,93.91,46.61z M93.91,46.84c-1.51,0-2.63,1.22-2.63,2.73c0,1.51,1.12,2.73,2.63,2.73
				s2.63-1.22,2.63-2.73C96.54,48.06,95.41,46.84,93.91,46.84z"/>
			<path class="st2" d="M100.91,46.85c-0.08-0.01-0.09-0.01-0.15-0.01c-1.04,0-1.58,0.73-1.88,1.44v4.12h-0.26v-5.67h0.26v1.03
				c0.32-0.68,0.99-1.16,1.87-1.16c0.05,0,0.09,0,0.19,0.01L100.91,46.85z"/>
			<path class="st2" d="M107.3,46.73l-4.15,8.78h-0.28l1.76-3.75l-2.64-5.04h0.27l2.51,4.74l2.24-4.74H107.3z"/>
			<path class="st2" d="M117.22,46.73v5.67h-0.26v-1.06c-0.3,0.5-1.13,1.19-2.33,1.19c-1.69,0-2.87-1.25-2.87-2.95
				c0-1.67,1.24-2.98,2.91-2.98c1.16,0,1.91,0.61,2.29,1.15v-1.02H117.22z M116.97,48.18c-0.48-0.81-1.29-1.34-2.27-1.34
				c-1.56,0-2.68,1.2-2.68,2.74s1.06,2.72,2.61,2.72c1.09,0,1.97-0.64,2.33-1.4V48.18z"/>
			<path class="st2" d="M119.73,46.73v1.12c0.53-0.73,1.35-1.25,2.3-1.25c0.63,0,1.29,0.23,1.76,0.73c0.39,0.41,0.62,0.97,0.62,1.84
				v3.22h-0.26v-3.22c0-0.81-0.22-1.31-0.57-1.69c-0.39-0.41-0.98-0.66-1.56-0.66c-0.95,0-1.76,0.57-2.3,1.4v4.16h-0.26v-5.67
				H119.73z"/>
			<path class="st2" d="M131.62,43.26v9.14h-0.26v-1.06c-0.3,0.5-1.13,1.19-2.33,1.19c-1.69,0-2.87-1.25-2.87-2.95
				c0-1.67,1.24-2.98,2.91-2.98c1.16,0,1.91,0.61,2.29,1.15v-4.49H131.62z M131.36,48.18c-0.48-0.81-1.29-1.34-2.27-1.34
				c-1.56,0-2.68,1.2-2.68,2.74s1.06,2.72,2.61,2.72c1.09,0,1.97-0.64,2.33-1.4V48.18z"/>
		</g>
		<polyline class="st3" points="19.14,49.25 13.03,52.39 63,52.39 		"/>
	</g>
	<path class="st2" d="M17.87,69.36c-0.73,0.54-1.66,0.85-3.09,0.85h-2.45v-9.01h2.45c1.43,0,2.36,0.31,3.09,0.85
		c1.11,0.82,1.8,2.16,1.8,3.66C19.68,67.19,18.98,68.53,17.87,69.36z M14.76,69.98c1.37,0,2.27-0.3,2.97-0.82
		c1.04-0.77,1.69-2.03,1.69-3.45s-0.64-2.68-1.69-3.45c-0.71-0.53-1.61-0.82-2.97-0.82h-2.16v8.55H14.76z"/>
	<path class="st2" d="M21.2,67.21v0.15c0,1.52,0.95,2.74,2.59,2.74c0.8,0,1.53-0.28,2.09-0.93l0.18,0.18
		c-0.57,0.64-1.35,0.98-2.27,0.98c-1.8,0-2.85-1.35-2.85-2.98s1.06-2.95,2.68-2.95c1.58,0,2.63,1.25,2.68,2.79H21.2z M21.23,66.97
		h4.78c-0.1-1.27-1.02-2.33-2.38-2.33C22.31,64.64,21.4,65.61,21.23,66.97z"/>
	<path class="st2" d="M33.25,68.96c-0.48,0.84-1.37,1.38-2.51,1.38c-1.73,0-3.03-1.26-3.03-2.98c0-1.62,1.26-2.95,2.9-2.95
		c1.06,0,1.87,0.45,2.41,1.16l-0.21,0.15c-0.48-0.68-1.28-1.08-2.18-1.08c-1.47,0-2.67,1.18-2.67,2.72c0,1.6,1.22,2.74,2.77,2.74
		c1.04,0,1.87-0.53,2.31-1.27L33.25,68.96z"/>
	<path class="st4" d="M35.02,62.09c0.22,0,0.39,0.17,0.39,0.39s-0.17,0.39-0.39,0.39c-0.22,0-0.39-0.17-0.39-0.39
		S34.8,62.09,35.02,62.09z M34.89,64.54h0.26v5.67h-0.26V64.54z"/>
	<path class="st2" d="M36.98,69.33c0.58,0.55,1.09,0.77,1.84,0.77c0.81,0,1.56-0.53,1.56-1.33c0-1.75-3.39-1.06-3.39-2.9
		c0-0.91,0.77-1.47,1.73-1.47c0.76,0,1.24,0.24,1.69,0.62l-0.17,0.18c-0.4-0.36-0.89-0.57-1.52-0.57c-0.68,0-1.47,0.39-1.47,1.24
		c0,1.6,3.39,0.93,3.39,2.9c0,0.85-0.76,1.56-1.82,1.56c-0.81,0-1.47-0.28-2.02-0.84L36.98,69.33z"/>
	<path class="st4" d="M42.46,62.09c0.22,0,0.39,0.17,0.39,0.39s-0.17,0.39-0.39,0.39s-0.39-0.17-0.39-0.39S42.24,62.09,42.46,62.09z
		 M42.33,64.54h0.26v5.67h-0.26V64.54z"/>
	<path class="st2" d="M47.25,64.41c1.67,0,2.88,1.33,2.88,2.96c0,1.64-1.21,2.96-2.88,2.96c-1.67,0-2.88-1.33-2.88-2.96
		C44.37,65.74,45.58,64.41,47.25,64.41z M47.25,64.64c-1.51,0-2.63,1.22-2.63,2.73c0,1.51,1.12,2.73,2.63,2.73s2.63-1.22,2.63-2.73
		C49.88,65.87,48.76,64.64,47.25,64.64z"/>
	<path class="st2" d="M52.21,64.54v1.12c0.53-0.73,1.35-1.25,2.3-1.25c0.63,0,1.29,0.23,1.76,0.73c0.39,0.41,0.62,0.97,0.62,1.84
		v3.22h-0.26v-3.22c0-0.81-0.22-1.31-0.57-1.69c-0.39-0.41-0.98-0.66-1.56-0.66c-0.95,0-1.76,0.57-2.3,1.4v4.16h-0.26v-5.67H52.21z"
		/>
	<path class="st2" d="M62.88,69.98h4.51v0.23h-4.76v-9.01h0.26V69.98z"/>
	<path class="st2" d="M73.51,64.54v5.67h-0.26v-1.06c-0.3,0.5-1.13,1.19-2.33,1.19c-1.69,0-2.87-1.25-2.87-2.95
		c0-1.67,1.24-2.98,2.91-2.98c1.16,0,1.91,0.61,2.29,1.15v-1.02H73.51z M73.25,65.98c-0.48-0.81-1.29-1.34-2.27-1.34
		c-1.56,0-2.68,1.2-2.68,2.74s1.06,2.72,2.61,2.72c1.09,0,1.97-0.64,2.33-1.4V65.98z"/>
	<path class="st5" d="M75.67,69.82"/>
	<g>
		<path class="st6" d="M81.19,67.36c0-1.67-1.24-2.97-2.91-2.97c-1.16,0-1.91,0.6-2.29,1.15v-4.49h-0.26v9.14h0.26v-4.22
			c0.48-0.81,1.29-1.34,2.27-1.34c1.56,0,2.68,1.2,2.68,2.74c0,1.55-1.06,2.72-2.61,2.72c-0.34,0,0.96,0.08,0.96,0.08
			S81.18,69.7,81.19,67.36"/>
		<path class="st7" d="M76.19,70.38h-0.66v-9.54h0.66V65c0.4-0.38,1.08-0.81,2.09-0.81c1.77,0,3.11,1.37,3.11,3.18v0
			c-0.02,2.47-2.04,2.99-2.06,2.99l-0.03,0.01l-0.03,0c-1.21-0.08-1.21-0.08-1.21-0.29c0-0.07,0.04-0.2,0.26-0.2
			c1.42,0,2.41-1.03,2.41-2.52c0-1.45-1.07-2.54-2.48-2.54c-0.85,0-1.6,0.43-2.07,1.19V70.38z"/>
		<polygon class="st7" points="131.91,70.38 75.53,70.38 75.53,69.83 129.68,69.83 124.68,67.21 124.93,66.72 		"/>
	</g>
</g>
</svg>
